<svg width="192" height="192" viewBox="0 0 192 192" fill="none" xmlns="http://www.w3.org/2000/svg">
<path d="M154.561 40.3033L97.2325 23.1045C96.4298 22.8636 95.5742 22.8636 94.7713 23.1045L37.4418 40.3033C35.631 40.8464 34.3906 42.5137 34.3906 44.4044V107.467C34.3906 115.669 37.7114 124.065 44.2599 132.423C49.2616 138.805 56.1811 145.215 64.8264 151.473C79.3494 161.985 93.6506 168.435 94.2524 168.704C94.8087 168.953 95.4053 169.078 96.0019 169.078C96.5985 169.078 97.1951 168.953 97.7513 168.704C98.3529 168.435 112.654 161.985 127.177 151.473C135.822 145.215 142.741 138.805 147.743 132.423C154.292 124.066 157.612 115.669 157.612 107.467V44.4044C157.612 42.5137 156.372 40.8464 154.561 40.3033Z" fill="url(#paint0_linear)"/>
<path fill-rule="evenodd" clip-rule="evenodd" d="M98.0721 20.3041L155.399 37.5025C155.4 37.5028 155.4 37.5028 155.4 37.5028C158.449 38.4171 160.534 41.2227 160.534 44.4036V107.466C160.534 116.493 156.875 125.506 150.043 134.225L147.742 132.422C154.291 124.065 157.611 115.668 157.611 107.466V44.4036C157.611 42.5129 156.371 40.8456 154.56 40.3025L97.2317 23.1038C96.4291 22.8628 95.5735 22.8628 94.7705 23.1038L37.4411 40.3025C35.6303 40.8456 34.3899 42.5129 34.3899 44.4036V107.466C34.3899 115.668 37.7106 124.064 44.2592 132.422C49.2608 138.805 56.1803 145.214 64.8256 151.472L63.1115 153.84C54.3107 147.469 47.1717 140.878 41.9584 134.224C35.1263 125.506 31.4668 116.493 31.4668 107.466V44.4036C31.4668 41.2221 33.5537 38.4168 36.6013 37.5028L98.0721 20.3041ZM36.6013 37.5028L93.9304 20.304C93.9304 20.304 93.9304 20.304 93.9307 20.304C95.2812 19.8987 96.7208 19.8986 98.0715 20.304L36.6013 37.5028ZM94.2517 168.703C93.6498 168.434 79.3486 161.985 64.8256 151.472L63.1115 153.84C77.8631 164.518 92.3651 171.061 93.0567 171.371C93.993 171.79 94.997 172 96.0011 172C97.0034 172 98.0075 171.791 98.9447 171.371C98.9455 171.371 98.9461 171.37 98.9467 171.37C99.6462 171.057 114.143 164.515 128.89 153.84L127.176 151.472L128.89 153.84C137.691 147.469 144.83 140.878 150.043 134.225L147.742 132.422C142.741 138.805 135.821 145.214 127.176 151.472C112.653 161.985 98.3521 168.434 97.7506 168.703C97.1943 168.952 96.5977 169.077 96.0011 169.077C95.4045 169.077 94.8079 168.952 94.2517 168.703Z" fill="white"/>
<path fill-rule="evenodd" clip-rule="evenodd" d="M147.86 107.213C149.776 104.02 150.783 100.386 150.783 96.6427V95.151C150.783 91.4095 149.776 87.7752 147.86 84.5827C145.533 84.6128 143.319 85.7349 141.919 87.5999C139.792 90.4344 136.409 92.126 132.867 92.126C129.41 92.126 126.061 91.1114 123.185 89.1935L121.45 88.0374L123.542 84.8995L125.277 86.0553C127.036 87.2283 129.022 87.9544 131.096 88.2242C130.003 83.238 127.84 78.4968 124.76 74.399C124.196 73.6483 124.271 72.596 124.935 71.9322L128.59 68.2774C130.236 66.6291 132.426 65.7241 134.753 65.7241C136.073 65.7241 137.314 65.2111 138.247 64.2737L139.458 63.063C139.349 60.2966 138.217 57.7091 136.249 55.7404C134.28 53.7714 131.692 52.6419 128.926 52.5305L127.715 53.7413C126.78 54.6767 126.267 55.9175 126.267 57.2376C126.267 59.5649 125.361 61.7543 123.713 63.4026L120.059 67.0574C119.395 67.7212 118.344 67.7966 117.592 67.2327C113.494 64.153 108.753 61.9882 103.767 60.8964C104.036 62.9706 104.762 64.9565 105.935 66.7159L107.091 68.4511L103.953 70.5425L102.797 68.8074C100.879 65.9296 99.8649 62.5804 99.8649 59.1235C99.8649 55.5799 101.556 52.1967 104.391 50.0714C106.256 48.6721 107.378 46.4581 107.408 44.1311C104.214 42.215 100.58 41.208 96.838 41.208H95.3481C91.6066 41.208 87.9726 42.215 84.778 44.1311C84.8081 46.4581 85.9303 48.6721 87.7952 50.0714C90.6297 52.1988 92.3213 55.5819 92.3213 59.1235C92.3213 62.5804 91.3067 65.9296 89.3888 68.8057L88.2328 70.5405L85.0948 68.449L86.2506 66.7142C87.4237 64.9545 88.1497 62.9689 88.4195 60.8943C83.4334 61.9882 78.6921 64.1512 74.5943 67.2307C73.8419 67.7949 72.7896 67.7191 72.1275 67.0553L68.4728 63.4006C66.8244 61.7543 65.9195 59.5649 65.9195 57.2376C65.9195 55.9175 65.4065 54.6767 64.4711 53.7433L63.2603 52.5326C60.4936 52.6419 57.9064 53.7734 55.9374 55.7421C53.9688 57.7111 52.839 60.2983 52.7279 63.065L53.9366 64.2758C54.872 65.2111 56.1128 65.7241 57.4329 65.7241C59.7602 65.7241 61.9496 66.6291 63.598 68.2774L67.2527 71.9322C67.9165 72.596 67.9919 73.6483 67.4281 74.399C64.3483 78.4968 62.1835 83.238 61.0914 88.2242C63.1659 87.9544 65.1519 87.2283 66.9113 86.0553L68.6464 84.8995L70.7376 88.0374L69.0027 89.1935C66.125 91.1114 62.7757 92.126 59.3189 92.126C55.7752 92.126 52.392 90.4344 50.2667 87.5999C48.8674 85.7349 46.6535 84.6128 44.3264 84.5827C42.4103 87.7773 41.4033 91.4113 41.4033 95.1528V96.6427C41.4033 100.384 42.4103 104.018 44.3264 107.213C46.6535 107.183 48.8674 106.061 50.2667 104.196C52.3941 101.361 55.7773 99.6695 59.3189 99.6695C62.7757 99.6695 66.1249 100.684 69.001 102.602L70.7358 103.758L68.6443 106.896L66.9095 105.74C65.1498 104.567 63.1642 103.841 61.0897 103.571C62.1835 108.557 64.3465 113.299 67.426 117.397C67.9899 118.147 67.9145 119.199 67.2506 119.863L63.5959 123.518C61.9496 125.166 59.7602 126.071 57.4329 126.071C56.1128 126.071 54.872 126.584 53.9386 127.522L52.7279 128.732C52.8372 131.499 53.9688 134.086 55.9374 136.055C57.9064 138.024 60.4936 139.154 63.2603 139.265L64.4711 138.054C65.4065 137.119 65.9195 135.878 65.9195 134.558C65.9195 132.231 66.8244 130.041 68.4748 128.393L72.1295 124.738C72.7913 124.074 73.8436 123.999 74.596 124.563C78.6942 127.642 83.4351 129.807 88.4213 130.899C88.1518 128.825 87.4257 126.839 86.2527 125.08L85.0966 123.344L88.2348 121.253L89.3906 122.988C91.3087 125.866 92.3233 129.215 92.3233 132.672C92.3233 136.216 90.6317 139.599 87.7972 141.724C85.932 143.123 84.8098 145.337 84.7797 147.664C87.9726 149.58 91.6066 150.587 95.3499 150.587H96.8398C100.581 150.587 104.215 149.58 107.408 147.664C107.378 145.337 106.256 143.123 104.391 141.724C101.556 139.597 99.8649 136.214 99.8649 132.672C99.8649 129.215 100.879 125.866 102.797 122.99L103.953 121.255L107.091 123.346L105.935 125.081C104.762 126.841 104.036 128.827 103.767 130.901C108.753 129.807 113.494 127.644 117.592 124.564C118.344 124.001 119.395 124.076 120.059 124.74L123.713 128.395C125.361 130.041 126.267 132.231 126.267 134.558C126.267 135.878 126.78 137.119 127.717 138.052L128.928 139.263C131.694 139.154 134.282 138.022 136.25 136.053C138.219 134.084 139.349 131.497 139.46 128.73L138.25 127.52C137.314 126.584 136.073 126.071 134.753 126.071C132.426 126.071 130.237 125.166 128.588 123.518L124.933 119.863C124.27 119.199 124.194 118.147 124.758 117.397C127.838 113.299 130.003 108.557 131.094 103.571C129.02 103.841 127.034 104.567 125.275 105.74L123.54 106.896L121.448 103.758L123.183 102.602C126.061 100.684 129.41 99.6695 132.867 99.6695C136.411 99.6695 139.794 101.361 141.919 104.196C143.319 106.061 145.533 107.183 147.86 107.213Z" fill="white"/>
<path d="M148.899 80.8095H147.956C144.414 80.8095 141.031 82.5011 138.903 85.3353C137.906 86.665 136.482 87.5911 134.909 88.038C133.857 82.8329 131.754 77.8522 128.737 73.4659L131.26 70.9427C132.193 70.0073 133.434 69.4943 134.754 69.4943C137.082 69.4943 139.271 68.589 140.917 66.9407L142.688 65.1699C143.043 64.8174 143.241 64.3365 143.241 63.8367V63.5143C143.241 59.5707 141.706 55.8634 138.917 53.0742C136.127 50.285 132.422 48.7498 128.476 48.7498H128.154C127.654 48.7498 127.173 48.948 126.821 49.3023L125.05 51.0734C123.402 52.7196 122.496 54.909 122.496 57.2361C122.496 58.5564 121.983 59.7973 121.048 60.7327L118.525 63.2559C114.138 60.2384 109.158 58.1358 103.953 57.0835C104.4 55.5106 105.326 54.0868 106.655 53.0891C109.49 50.9599 111.181 47.5768 111.181 44.0352V43.0922C111.181 42.4623 110.866 41.8741 110.342 41.5234C106.331 38.849 101.662 37.4346 96.8394 37.4346H95.3495C90.5273 37.4346 85.858 38.849 81.8467 41.5234C81.3226 41.8741 81.0078 42.4623 81.0078 43.0922V44.0352C81.0078 47.5768 82.6993 50.9599 85.5336 53.0874C86.8633 54.085 87.7893 55.5088 88.2362 57.0814C83.0311 58.1338 78.0505 60.2366 73.6641 63.2538L71.1409 60.7306C70.2055 59.7973 69.6925 58.5564 69.6925 57.2361C69.6925 54.909 68.7873 52.7196 67.1389 51.0734L65.3681 49.3023C65.0156 48.948 64.5348 48.7498 64.0349 48.7498H63.7125C59.769 48.7498 56.0616 50.285 53.2724 53.0742C50.4832 55.8634 48.948 59.569 48.948 63.5143V63.8367C48.948 64.3365 49.1462 64.8174 49.5005 65.1699L51.2713 66.9407C52.9179 68.589 55.1073 69.4943 57.4343 69.4943C58.7544 69.4943 59.9955 70.0073 60.9309 70.9427L63.4541 73.4659C60.4366 77.8522 58.334 82.8329 57.2817 88.038C55.7071 87.589 54.2832 86.665 53.2856 85.3353C51.1582 82.5011 47.775 80.8095 44.2334 80.8095H43.2904C42.6605 80.8095 42.0724 81.1243 41.7216 81.6487C39.0473 85.6598 37.6328 90.3291 37.6328 95.1513V96.6412C37.6328 101.463 39.0473 106.133 41.7216 110.144C42.0724 110.668 42.6605 110.983 43.2904 110.983H44.2334C47.775 110.983 51.1582 109.291 53.2856 106.457C54.2832 105.127 55.7071 104.201 57.2797 103.755C58.332 108.96 60.4349 113.94 63.4521 118.327L60.9289 120.85C59.9955 121.785 58.7544 122.298 57.4343 122.298C55.1073 122.298 52.9179 123.203 51.2713 124.852L49.5005 126.623C49.1462 126.975 48.948 127.456 48.948 127.956V128.278C48.948 132.221 50.4832 135.929 53.2724 138.718C56.0616 141.508 59.7672 143.043 63.7125 143.043H64.0349C64.5348 143.043 65.0156 142.845 65.3681 142.49L67.1389 140.719C68.7873 139.073 69.6925 136.883 69.6925 134.556C69.6925 133.236 70.2055 131.995 71.1409 131.06L73.6641 128.537C78.0505 131.554 83.0311 133.657 88.2362 134.709C87.7893 136.282 86.8633 137.706 85.5336 138.703C82.6993 140.829 81.0078 144.212 81.0078 147.755V148.7C81.0078 149.33 81.3226 149.918 81.8467 150.269C85.858 152.943 90.5273 154.358 95.3495 154.358H96.8394C101.662 154.358 106.331 152.943 110.342 150.269C110.866 149.918 111.181 149.33 111.181 148.7V147.757C111.181 144.216 109.49 140.833 106.655 138.705C105.326 137.708 104.4 136.284 103.953 134.711C109.158 133.659 114.138 131.556 118.525 128.538L121.048 131.062C121.983 131.995 122.496 133.236 122.496 134.556C122.496 136.883 123.402 139.073 125.05 140.719L126.821 142.49C127.173 142.845 127.654 143.043 128.154 143.043H128.476C132.42 143.043 136.127 141.508 138.917 138.718C141.706 135.929 143.241 132.224 143.241 128.278V127.956C143.241 127.456 143.043 126.975 142.688 126.623L140.917 124.852C139.271 123.203 137.082 122.298 134.754 122.298C133.434 122.298 132.193 121.785 131.258 120.85L128.735 118.327C131.752 113.94 133.855 108.96 134.907 103.755C136.48 104.201 137.904 105.127 138.902 106.457C141.027 109.291 144.41 110.983 147.954 110.983H148.899C149.528 110.983 150.117 110.668 150.467 110.144C153.142 106.133 154.556 101.463 154.556 96.6412V95.1513C154.556 90.3291 153.142 85.6598 150.467 81.6487C150.117 81.1243 149.528 80.8095 148.899 80.8095ZM150.784 96.6412C150.784 100.384 149.777 104.019 147.861 107.211C145.534 107.181 143.32 106.059 141.921 104.194C139.796 101.36 136.412 99.668 132.869 99.668C129.412 99.668 126.063 100.683 123.185 102.6L121.45 103.757L123.541 106.894L125.276 105.738C127.036 104.566 129.022 103.84 131.096 103.57C130.004 108.556 127.839 113.297 124.76 117.395C124.196 118.146 124.271 119.198 124.935 119.862L128.59 123.517C130.238 125.165 132.427 126.07 134.754 126.07C136.075 126.07 137.316 126.583 138.251 127.518L139.462 128.729C139.35 131.496 138.221 134.083 136.252 136.052C134.283 138.021 131.696 139.152 128.929 139.261L127.719 138.051C126.781 137.117 126.268 135.876 126.268 134.556C126.268 132.229 125.363 130.04 123.715 128.393L120.06 124.738C119.396 124.075 118.346 123.999 117.593 124.563C113.495 127.643 108.754 129.806 103.768 130.9C104.038 128.825 104.764 126.84 105.937 125.08L107.093 123.345L103.955 121.254L102.799 122.988C100.881 125.864 99.8663 129.214 99.8663 132.67C99.8663 136.212 101.558 139.595 104.392 141.723C106.257 143.122 107.379 145.336 107.41 147.663C104.217 149.579 100.583 150.586 96.8412 150.586H95.3513C91.608 150.586 87.974 149.579 84.7812 147.663C84.8113 145.336 85.9334 143.122 87.7987 141.723C90.6332 139.597 92.3247 136.214 92.3247 132.67C92.3247 129.214 91.3101 125.864 89.392 122.987L88.2362 121.251L85.098 123.343L86.2541 125.078C87.4271 126.837 88.1532 128.823 88.4227 130.898C83.4365 129.806 78.6956 127.641 74.5975 124.561C73.8451 123.997 72.7927 124.073 72.131 124.737L68.4762 128.391C66.8259 130.04 65.9209 132.229 65.9209 134.556C65.9209 135.876 65.4079 137.117 64.4725 138.053L63.2618 139.263C60.4951 139.152 57.9079 138.023 55.9389 136.054C53.9702 134.085 52.8387 131.497 52.7293 128.731L53.9401 127.52C54.8734 126.583 56.1143 126.07 57.4343 126.07C59.7617 126.07 61.9511 125.165 63.5973 123.517L67.2521 119.862C67.9159 119.198 67.9913 118.146 67.4274 117.395C64.348 113.297 62.1849 108.556 61.0911 103.57C63.1656 103.84 65.1512 104.566 66.9109 105.738L68.6458 106.894L70.7372 103.757L69.0024 102.6C66.1264 100.683 62.7771 99.668 59.3203 99.668C55.7787 99.668 52.3955 101.36 50.2681 104.194C48.8688 106.059 46.6549 107.181 44.3278 107.211C42.4118 104.017 41.4048 100.383 41.4048 96.6412V95.1513C41.4048 91.4098 42.4118 87.7758 44.3278 84.5812C46.6549 84.6113 48.8688 85.7334 50.2681 87.5984C52.3935 90.4329 55.7766 92.1245 59.3203 92.1245C62.7771 92.1245 66.1264 91.1099 69.0042 89.192L70.739 88.0359L68.6478 84.898L66.9127 86.0538C65.1533 87.2268 63.1674 87.9529 61.0928 88.2227C62.1849 83.2365 64.3497 78.4953 67.4295 74.3975C67.9933 73.6468 67.9179 72.5945 67.2541 71.9307L63.5994 68.276C61.9511 66.6276 59.7617 65.7226 57.4343 65.7226C56.1143 65.7226 54.8734 65.2096 53.938 64.2743L52.7293 63.0635C52.8404 60.2968 53.9702 57.7096 55.9389 55.7406C57.9079 53.7719 60.4951 52.6404 63.2618 52.5311L64.4725 53.7418C65.4079 54.6752 65.9209 55.916 65.9209 57.2361C65.9209 59.5634 66.8259 61.7528 68.4742 63.3991L72.1289 67.0538C72.791 67.7176 73.8433 67.7934 74.5957 67.2292C78.6936 64.1497 83.4348 61.9867 88.421 60.8928C88.1512 62.9674 87.4251 64.953 86.252 66.7127L85.0963 68.4475L88.2342 70.539L89.3903 68.8042C91.3081 65.9281 92.3227 62.5789 92.3227 59.122C92.3227 55.5804 90.6311 52.1973 87.7966 50.0699C85.9317 48.6706 84.8095 46.4566 84.7794 44.1296C87.974 42.2135 91.608 41.2065 95.3495 41.2065H96.8394C100.581 41.2065 104.215 42.2135 107.41 44.1296C107.379 46.4566 106.257 48.6706 104.392 50.0699C101.558 52.1952 99.8663 55.5784 99.8663 59.122C99.8663 62.5789 100.881 65.9281 102.799 68.8059L103.955 70.541L107.093 68.4496L105.937 66.7144C104.764 64.955 104.038 62.9691 103.768 60.8949C108.754 61.9867 113.495 64.1515 117.593 67.2312C118.346 67.7951 119.396 67.7197 120.06 67.0559L123.715 63.4011C125.363 61.7528 126.268 59.5634 126.268 57.2361C126.268 55.916 126.781 54.6752 127.716 53.7398L128.927 52.529C131.694 52.6404 134.281 53.7699 136.25 55.7389C138.219 57.7076 139.35 60.2951 139.46 63.0615L138.249 64.2722C137.316 65.2096 136.075 65.7226 134.754 65.7226C132.427 65.7226 130.238 66.6276 128.592 68.276L124.937 71.9307C124.273 72.5945 124.197 73.6468 124.761 74.3975C127.841 78.4953 130.004 83.2365 131.098 88.2227C129.023 87.9529 127.037 87.2268 125.278 86.0538L123.543 84.898L121.452 88.0359L123.187 89.192C126.063 91.1099 129.412 92.1245 132.869 92.1245C136.41 92.1245 139.793 90.4329 141.921 87.5984C143.32 85.7334 145.534 84.6113 147.861 84.5812C149.777 87.7737 150.784 91.408 150.784 95.1495V96.6412Z" fill="url(#paint1_linear)"/>
<path fill-rule="evenodd" clip-rule="evenodd" d="M102.029 116.914C102.803 116.624 103.684 116.284 104.671 115.894L105.291 113.368C104.968 113.518 104.455 113.692 103.746 113.888C103.031 114.083 102.399 114.184 101.834 114.184C100.972 114.184 100.292 114.081 99.7981 113.876C99.6065 113.797 99.4427 113.702 99.3079 113.592C98.819 113.197 98.5781 112.455 98.5781 111.368C98.5781 110.937 98.6509 110.296 98.8009 109.456C98.9535 108.616 99.1215 107.865 99.3108 107.208L101.623 99.0223C101.849 98.2678 102.005 97.4465 102.087 96.5451C102.17 95.6475 102.212 95.018 102.212 94.6606C102.212 92.9379 101.605 91.5364 100.398 90.4581C99.1858 89.383 97.4631 88.8392 95.2304 88.8392C94.4745 88.8392 93.6901 88.9212 92.8771 89.0873C92.3597 89.1925 91.8306 89.3316 91.29 89.5051C89.9006 89.9451 88.4437 90.4762 86.9226 91.0962L86.3086 93.6254C86.7545 93.4544 87.2983 93.2804 87.9243 93.0879C88.5564 92.9015 89.1736 92.8129 89.7724 92.8129C90.9969 92.8129 91.8186 93.0145 92.2553 93.4266C92.6861 93.8393 92.9032 94.5723 92.9032 95.6168C92.9032 96.2033 92.8358 96.8477 92.6953 97.55C92.5548 98.2466 92.3775 98.9948 92.173 99.7829L89.8487 107.993C89.6439 108.857 89.4945 109.627 89.3996 110.311C89.3542 110.647 89.3204 110.98 89.2975 111.31C89.2739 111.651 89.2622 111.99 89.2622 112.324C89.2622 114.013 89.8822 115.403 91.1283 116.499C92.3746 117.596 94.1246 118.146 96.3727 118.146C97.8359 118.146 99.1215 117.953 100.227 117.568C100.746 117.388 101.347 117.17 102.029 116.914ZM100.368 84.1724C101.886 84.1724 103.184 83.6714 104.262 82.6696C105.34 81.6676 105.881 80.4519 105.881 79.0258C105.881 77.6053 105.34 76.3839 104.262 75.3727C103.187 74.3587 101.886 73.8545 100.368 73.8545C98.8528 73.8545 97.5454 74.3587 96.4582 75.3727C95.3799 76.3839 94.8301 77.6053 94.8301 79.0258C94.8301 80.4488 95.3767 81.6676 96.4582 82.6696C97.5454 83.6714 98.8528 84.1724 100.368 84.1724Z" fill="#000080"/>
<defs>
<linearGradient id="paint0_linear" x1="96.0013" y1="22.9238" x2="96.0013" y2="169.078" gradientUnits="userSpaceOnUse">
<stop stop-color="#FF9933"/>
<stop offset="0.0001" stop-color="#FF9933"/>
<stop offset="0.303938" stop-color="#FF9933"/>
<stop offset="0.497359" stop-color="white"/>
<stop offset="0.692378" stop-color="#138808"/>
<stop offset="1" stop-color="#138808"/>
</linearGradient>
<linearGradient id="paint1_linear" x1="96.0943" y1="37.4346" x2="96.0943" y2="154.358" gradientUnits="userSpaceOnUse">
<stop stop-color="#FF9933"/>
<stop offset="0.0001" stop-color="#FF9933"/>
<stop offset="0.303938" stop-color="#FF9933"/>
<stop offset="0.497359" stop-color="white"/>
<stop offset="0.692378" stop-color="#138808"/>
<stop offset="1" stop-color="#138808"/>
</linearGradient>
</defs>
</svg>
